<?xml version="1.0" encoding="utf-8"?>
<!-- Generator: Adobe Illustrator 26.3.1, SVG Export Plug-In . SVG Version: 6.00 Build 0)  -->
<svg version="1.1" id="Capa_1" xmlns="http://www.w3.org/2000/svg" xmlns:xlink="http://www.w3.org/1999/xlink" x="0px" y="0px"
	 viewBox="0 0 233 46.31" style="enable-background:new 0 0 233 46.31;" xml:space="preserve">
<style type="text/css">
	.st0{fill:#5F9C94;}
	.st1{fill:#262626;}
</style>
<g id="logo_contenidos_crea" transform="translate(0 0)">
	<g id="Grupo_633" transform="translate(166.669)">
		<g id="Grupo_632">
			<path id="Trazado_657" class="st0" d="M65.01,33.26c-0.02,2.21-1.82,4-4.04,3.98H5.72c-2.2,0-3.99-1.75-4.04-3.95v6.83
				c0,3.17,2.58,5.73,5.74,5.73h0.01h51.83c3.17,0.01,5.74-2.55,5.75-5.72v-0.01V33.26z"/>
			<path id="Trazado_658" class="st0" d="M1.68,12.62c0.06-2.19,1.85-3.94,4.04-3.95h55.26c2.2,0,3.99,1.75,4.04,3.95l0,0V5.83
				c0-3.17-2.58-5.73-5.74-5.73h-0.01H7.43C4.27,0.09,1.69,2.65,1.68,5.82v0.01C1.68,5.83,1.68,12.62,1.68,12.62z"/>
		</g>
		<path id="XMLID_1_" class="st0" d="M33.33,20.98c0.21-0.36,0.34-0.76,0.39-1.17c0.1-0.53,0.15-1.06,0.14-1.6v-0.07
			c-0.01-0.68-0.07-1.36-0.18-2.03c-0.08-0.57-0.28-1.11-0.57-1.6c-0.71-0.89-2.32-1.32-4.75-1.32h-6.82c-0.13,0-0.25,0.1-0.25,0.24
			v0.01v19c0,0.13,0.1,0.25,0.24,0.25h0.01h3.93c0.13,0,0.25-0.1,0.25-0.24v-0.01v-7.87h1.39c0.74-0.11,1.49,0.13,2.04,0.64
			c0.25,0.54,0.35,1.15,0.29,1.74v5.48c0,0.13,0.1,0.25,0.24,0.25h0.01h3.93c0.13,0,0.25-0.1,0.25-0.24v-0.01v-5.19l0,0
			c0.06-0.96-0.17-1.91-0.64-2.74c-0.66-0.87-1.57-1.52-2.61-1.85C31.7,22.46,32.66,21.86,33.33,20.98 M29.43,19.28
			c0.04,0.51-0.16,1.01-0.54,1.35c-0.45,0.34-1.01,0.51-1.57,0.46h-1.6v-4.45h1.6c0.57-0.04,1.13,0.14,1.57,0.5
			c0.39,0.41,0.58,0.97,0.54,1.53l0,0V19.28L29.43,19.28z M44.4,13.19h-8.35c-0.13,0-0.25,0.1-0.25,0.24v0.01v19
			c0,0.13,0.1,0.25,0.24,0.25h0.01h8.36c0.13,0,0.25-0.1,0.25-0.24v-0.01v-3.03c0-0.13-0.1-0.25-0.24-0.25h-0.01h-4.18v-4.59h4.18
			c0.13,0,0.25-0.1,0.25-0.24v-0.01v-2.95c0-0.13-0.1-0.25-0.24-0.25h-0.01h-4.18v-4.51h4.18c0.13,0,0.25-0.1,0.25-0.24v-0.01v-2.88
			c0-0.07-0.03-0.13-0.07-0.18C44.55,13.23,44.48,13.19,44.4,13.19 M18.12,14.15c-0.82-0.75-2.29-1.1-4.36-1.1h-1.18
			c-2.07,0-3.5,0.36-4.36,1.1c-0.93,0.78-1.39,2.13-1.39,4.09v9.32l0,0c0,1.96,0.46,3.31,1.39,4.13c0.86,0.75,2.29,1.1,4.36,1.1
			h1.18c2.07,0,3.5-0.36,4.36-1.1c0.93-0.78,1.39-2.13,1.39-4.09l0,0v-2.74c0-0.13-0.1-0.25-0.24-0.25h-0.01h-3.93
			c-0.13,0-0.25,0.1-0.25,0.24v0.01v2.92c-0.01,0.38-0.18,0.75-0.46,1c-0.4,0.33-0.91,0.49-1.43,0.46l0,0
			c-0.52,0.03-1.03-0.14-1.43-0.46c-0.28-0.26-0.45-0.62-0.46-1V18.5c-0.06-0.5,0.11-1,0.46-1.35c0.4-0.33,0.91-0.49,1.43-0.46h0.04
			c0.52-0.03,1.03,0.14,1.43,0.46c0.35,0.36,0.53,0.85,0.46,1.35v2.38c0,0.13,0.1,0.25,0.24,0.25h0.01h3.89
			c0.13,0,0.25-0.1,0.25-0.24v-0.01v-2.6C19.47,16.28,19.04,14.93,18.12,14.15 M57.83,14.19c-0.82-0.75-2.29-1.1-4.36-1.1H52.3
			c-2.07,0-3.5,0.36-4.36,1.1c-0.93,0.78-1.39,2.13-1.39,4.09V32.4c0,0.13,0.1,0.25,0.24,0.25h0.01h3.89c0.13,0,0.25-0.1,0.25-0.24
			V32.4v-4.09h3.82v4.09c0,0.13,0.1,0.25,0.24,0.25h0.01h3.89c0.13,0,0.25-0.1,0.25-0.24V32.4V18.28
			C59.23,16.32,58.76,14.97,57.83,14.19 M54.8,24.58h-3.82V18.5c-0.06-0.5,0.11-1,0.46-1.35c0.4-0.33,0.91-0.49,1.43-0.46h0.04
			c0.52-0.03,1.03,0.14,1.43,0.46c0.35,0.36,0.53,0.85,0.46,1.35V24.58z"/>
	</g>
	<g id="Grupo_636" transform="translate(0 5.989)">
		<g id="Grupo_634" transform="translate(0 0)">
			<path id="Trazado_660" class="st0" d="M17.64,18.15c0.03,2.21-0.76,4.36-2.21,6.03c-1.52,1.47-3.59,2.24-5.7,2.12
				c-2.3,0.08-4.49-0.96-5.88-2.79c-1.55-2.22-2.32-4.9-2.17-7.61v-4.46c-0.14-2.7,0.66-5.37,2.26-7.56C5.42,2.03,7.68,1,10.04,1.09
				c2.06-0.12,4.07,0.65,5.52,2.12c1.41,1.71,2.17,3.86,2.12,6.08h-3.12c0.02-1.52-0.42-3.01-1.27-4.28
				c-0.84-0.89-2.03-1.36-3.26-1.26C8.49,3.69,7.02,4.44,6.15,5.73C5.14,7.47,4.67,9.48,4.8,11.49v4.5
				c-0.12,1.99,0.32,3.97,1.27,5.72c0.76,1.28,2.17,2.04,3.66,1.98c1.28,0.12,2.55-0.32,3.48-1.22c0.72-0.81,1.13-2.21,1.31-4.28
				h3.12V18.15z"/>
			<path id="Trazado_661" class="st0" d="M21.12,16.04c-0.13-2.26,0.56-4.5,1.94-6.3c1.24-1.53,3.14-2.39,5.11-2.3
				c1.96-0.07,3.84,0.76,5.11,2.25c1.36,1.75,2.06,3.91,1.99,6.12v1.94c0.14,2.25-0.56,4.48-1.94,6.26
				c-1.26,1.53-3.17,2.38-5.15,2.3c-1.96,0.06-3.83-0.77-5.11-2.25c-1.36-1.73-2.06-3.88-1.99-6.08v-1.94
				C21.08,16.04,21.12,16.04,21.12,16.04z M24.1,17.75c-0.09,1.55,0.29,3.08,1.08,4.41c0.64,1.03,1.77,1.65,2.99,1.62
				c2.62,0,3.98-1.89,4.07-5.67v-2.07c0.09-1.55-0.31-3.09-1.13-4.41c-1.05-1.64-3.22-2.11-4.86-1.07
				c-0.43,0.27-0.79,0.64-1.07,1.07c-0.79,1.33-1.16,2.87-1.08,4.41L24.1,17.75z"/>
			<path id="Trazado_662" class="st0" d="M42.32,7.76l0.09,1.98c1-1.45,2.66-2.31,4.43-2.3c3.26,0,4.88,2.16,4.93,6.44v12.11h-2.98
				V14.01c0.11-1.06-0.15-2.12-0.72-3.02c-0.54-0.62-1.35-0.96-2.17-0.9c-0.73-0.01-1.43,0.25-1.99,0.72
				c-0.62,0.53-1.12,1.19-1.45,1.94v13.23h-2.98V7.76H42.32z"/>
			<path id="Trazado_663" class="st0" d="M60.49,3.34v4.41h2.76v2.39h-2.76v11.3c-0.03,0.56,0.09,1.12,0.36,1.62
				c0.28,0.39,0.75,0.59,1.22,0.54c0.41,0.01,0.83-0.05,1.22-0.18l-0.05,2.52c-0.67,0.22-1.37,0.32-2.08,0.31
				c-1.06,0.06-2.08-0.41-2.71-1.26c-0.69-1.05-1.03-2.3-0.95-3.56V10.14h-2.8V7.76h2.8V3.34H60.49z"/>
			<path id="Trazado_664" class="st0" d="M73.69,26.3c-1.96,0.12-3.88-0.62-5.24-2.03c-1.34-1.68-2-3.8-1.85-5.94v-2.2
				c-0.13-2.27,0.49-4.51,1.76-6.39c1.18-1.53,3.04-2.39,4.97-2.3c1.83-0.14,3.61,0.62,4.79,2.03c1.04,1.35,1.58,3.47,1.63,6.35
				v1.94H69.53v0.4c-0.12,1.51,0.26,3.01,1.08,4.28c0.78,0.92,1.96,1.42,3.16,1.35c0.8,0.01,1.58-0.16,2.3-0.5
				c0.74-0.38,1.39-0.91,1.9-1.58l1.54,1.89C78.3,25.4,76.36,26.3,73.69,26.3z M73.33,9.96c-1.07-0.08-2.12,0.39-2.76,1.26
				c-0.7,1.2-1.04,2.57-0.99,3.96h7.19v-0.4c0.03-1.29-0.3-2.57-0.95-3.69C75.23,10.32,74.29,9.9,73.33,9.96L73.33,9.96z"/>
			<path id="Trazado_665" class="st0" d="M86.53,7.76l0.09,1.98c1-1.45,2.66-2.31,4.43-2.3c3.26,0,4.88,2.16,4.93,6.44v12.11H93
				V14.01c0.11-1.06-0.15-2.12-0.72-3.02c-0.54-0.62-1.35-0.96-2.17-0.9c-0.73-0.01-1.43,0.25-1.99,0.72
				C87.5,11.34,87,12,86.67,12.75v13.23h-2.98V7.76H86.53z"/>
			<path id="Trazado_666" class="st0" d="M104.25,2.94c0.02,0.45-0.13,0.9-0.41,1.26c-0.71,0.66-1.82,0.66-2.53,0
				c-0.54-0.75-0.54-1.77,0-2.52c0.32-0.35,0.79-0.55,1.27-0.54c0.48-0.03,0.95,0.17,1.27,0.54C104.12,2.04,104.26,2.48,104.25,2.94
				z M104.02,25.94h-2.98V7.76h2.98V25.94z"/>
			<path id="Trazado_667" class="st0" d="M108.41,16.04c-0.14-2.24,0.41-4.47,1.58-6.39c1.03-1.46,2.73-2.3,4.52-2.21
				c1.63-0.06,3.18,0.74,4.07,2.12V0.11h2.98v25.84h-2.75l-0.14-1.94c-0.88,1.47-2.49,2.35-4.2,2.3c-1.76,0.08-3.43-0.75-4.43-2.21
				c-1.19-1.84-1.76-4.02-1.63-6.21L108.41,16.04z M111.44,17.7c-0.1,1.55,0.21,3.11,0.9,4.5c0.66,0.99,1.8,1.54,2.98,1.44
				c1.47,0,2.79-0.89,3.35-2.25v-9.14c-0.56-1.33-1.86-2.19-3.3-2.21c-1.18-0.08-2.31,0.47-2.98,1.44
				c-0.71,1.36-1.03,2.88-0.95,4.41V17.7z"/>
			<path id="Trazado_668" class="st0" d="M125.95,16.04c-0.13-2.26,0.56-4.5,1.94-6.3c1.24-1.53,3.14-2.38,5.11-2.3
				c1.96-0.07,3.84,0.76,5.1,2.25c1.36,1.75,2.06,3.91,1.99,6.12v1.94c0.14,2.25-0.56,4.48-1.94,6.26c-1.26,1.53-3.17,2.38-5.15,2.3
				c-1.96,0.06-3.83-0.77-5.11-2.25c-1.36-1.73-2.06-3.88-1.99-6.08v-1.94C125.9,16.04,125.95,16.04,125.95,16.04z M128.93,17.75
				c-0.09,1.55,0.29,3.08,1.09,4.41c0.64,1.03,1.77,1.65,2.98,1.62c2.62,0,3.98-1.89,4.07-5.67v-2.07c0.09-1.55-0.31-3.09-1.13-4.41
				c-1.05-1.64-3.22-2.11-4.86-1.07c-0.43,0.27-0.79,0.64-1.07,1.07c-0.79,1.33-1.16,2.87-1.09,4.41L128.93,17.75z"/>
			<path id="Trazado_669" class="st0" d="M152.88,21.31c0-0.63-0.26-1.24-0.72-1.67c-0.85-0.67-1.79-1.22-2.8-1.62
				c-1.19-0.44-2.33-1.01-3.39-1.71c-0.62-0.41-1.13-0.97-1.49-1.62c-0.34-0.67-0.52-1.41-0.5-2.16c-0.03-1.41,0.57-2.76,1.63-3.69
				c2.47-2,6-1.98,8.45,0.04c1.08,1.03,1.68,2.47,1.63,3.96h-2.98c0.01-0.78-0.28-1.54-0.81-2.12c-0.55-0.58-1.33-0.89-2.12-0.85
				c-0.75-0.04-1.49,0.2-2.08,0.67c-0.5,0.46-0.78,1.12-0.77,1.8c-0.02,0.53,0.17,1.05,0.54,1.44c0.8,0.61,1.68,1.09,2.62,1.44
				c1.65,0.54,3.19,1.4,4.52,2.52c0.82,0.84,1.26,1.98,1.22,3.15c0.06,1.44-0.54,2.83-1.63,3.78c-2.69,1.99-6.39,1.91-9-0.18
				c-1.16-1.06-1.81-2.57-1.76-4.14h3.03c0,0.89,0.34,1.74,0.95,2.39c0.68,0.61,1.58,0.92,2.49,0.85c0.81,0.06,1.62-0.18,2.26-0.67
				C152.67,22.56,152.95,21.94,152.88,21.31z"/>
		</g>
		<g id="Grupo_635" transform="translate(1.69 30.008)">
			<path id="Trazado_674" class="st1" d="M5.88,0.47v4.84C5.9,5.87,5.7,6.42,5.33,6.84c-0.9,0.73-2.18,0.74-3.09,0.03
				C1.86,6.45,1.66,5.9,1.68,5.34V0.49h0.86v4.79C2.52,5.65,2.63,6.01,2.85,6.31c0.55,0.45,1.34,0.45,1.89,0
				c0.22-0.29,0.33-0.66,0.31-1.03V0.47H5.88z"/>
			<path id="Trazado_675" class="st1" d="M7.86,2.22l0.03,0.56c0.28-0.4,0.74-0.64,1.23-0.64c0.89,0,1.36,0.58,1.36,1.78v3.37H9.64
				V3.95c0.03-0.29-0.04-0.59-0.2-0.83C9.3,2.94,9.09,2.85,8.86,2.86c-0.2,0-0.4,0.07-0.56,0.19C8.13,3.19,8,3.38,7.92,3.58v3.68
				H7.08V2.22H7.86z"/>
			<path id="Trazado_676" class="st1" d="M14.35,7.29c-0.06-0.18-0.1-0.37-0.11-0.56C14,7.12,13.58,7.36,13.12,7.37
				c-0.4,0.01-0.79-0.13-1.09-0.39c-0.27-0.29-0.41-0.69-0.39-1.09c-0.02-0.47,0.17-0.92,0.53-1.22c0.42-0.32,0.93-0.48,1.45-0.47
				h0.61V3.67c0.03-0.23-0.04-0.47-0.2-0.64c-0.17-0.13-0.39-0.2-0.61-0.19c-0.22,0-0.44,0.08-0.61,0.22
				c-0.16,0.14-0.24,0.35-0.22,0.56h-0.83c0.01-0.27,0.09-0.52,0.22-0.75c0.15-0.23,0.37-0.42,0.61-0.56
				c0.27-0.14,0.56-0.2,0.86-0.19c0.43-0.03,0.85,0.11,1.17,0.39c0.29,0.29,0.44,0.7,0.42,1.11v2.56c-0.01,0.35,0.05,0.7,0.17,1.03
				v0.08C15.21,7.29,14.35,7.29,14.35,7.29z M13.23,6.65c0.21,0,0.41-0.06,0.58-0.17c0.17-0.09,0.31-0.24,0.39-0.42v-1.2h-0.47
				c-0.33-0.02-0.66,0.08-0.92,0.28c-0.37,0.35-0.44,0.91-0.17,1.34C12.82,6.59,13.03,6.65,13.23,6.65L13.23,6.65z"/>
			<path id="Trazado_677" class="st1" d="M21.11,6.84c-0.29,0.36-0.74,0.56-1.2,0.53c-0.4,0.02-0.79-0.16-1.03-0.47
				c-0.26-0.42-0.39-0.9-0.36-1.39V2.22h0.83v3.23c0,0.78,0.25,1.2,0.72,1.2c0.45,0.04,0.88-0.24,1.03-0.67V2.22h0.83v5.07h-0.78
				L21.11,6.84z"/>
			<path id="Trazado_678" class="st1" d="M25.62,6.01c0.01-0.17-0.06-0.33-0.2-0.44c-0.23-0.19-0.5-0.34-0.78-0.44
				C24.32,4.99,24,4.83,23.7,4.64c-0.17-0.12-0.31-0.27-0.42-0.44c-0.1-0.18-0.15-0.38-0.14-0.58c-0.01-0.39,0.15-0.77,0.45-1.03
				c0.31-0.28,0.72-0.43,1.14-0.42c0.44-0.02,0.87,0.13,1.2,0.42c0.3,0.29,0.46,0.7,0.45,1.11h-0.83c0-0.22-0.08-0.42-0.22-0.58
				c-0.15-0.17-0.36-0.26-0.58-0.25c-0.21-0.02-0.42,0.05-0.58,0.19c-0.13,0.13-0.2,0.31-0.2,0.5c0,0.15,0.05,0.3,0.14,0.42
				c0.22,0.18,0.46,0.32,0.72,0.42c0.46,0.16,0.88,0.39,1.25,0.7c0.22,0.23,0.34,0.54,0.33,0.86c0.02,0.4-0.14,0.79-0.45,1.06
				c-0.35,0.27-0.78,0.41-1.23,0.39c-0.47,0.02-0.93-0.14-1.28-0.44c-0.32-0.29-0.51-0.71-0.5-1.14h0.83c0,0.23,0.09,0.48,0.26,0.65
				c0.38,0.31,0.93,0.34,1.34,0.06C25.53,6.4,25.62,6.21,25.62,6.01z"/>
			<path id="Trazado_679" class="st1" d="M28.49,0.88c0.01,0.13-0.03,0.26-0.11,0.36c-0.21,0.19-0.52,0.19-0.72,0
				c-0.08-0.1-0.12-0.23-0.11-0.36c-0.01-0.13,0.03-0.26,0.11-0.36c0.09-0.11,0.23-0.16,0.36-0.14c0.13-0.01,0.27,0.04,0.36,0.14
				C28.45,0.63,28.48,0.75,28.49,0.88z M28.43,7.28H27.6V2.21h0.83V7.28z"/>
			<path id="Trazado_680" class="st1" d="M30.49,2.22l0.03,0.56c0.28-0.4,0.74-0.64,1.23-0.64c0.89,0,1.36,0.58,1.36,1.78v3.37
				h-0.83V3.95c0.03-0.29-0.04-0.59-0.2-0.83c-0.15-0.17-0.36-0.26-0.58-0.25c-0.2,0-0.4,0.07-0.56,0.19
				c-0.17,0.14-0.31,0.32-0.39,0.53v3.68h-0.83V2.22H30.49z"/>
			<path id="Trazado_681" class="st1" d="M36.98,7.29c-0.06-0.18-0.1-0.37-0.11-0.56c-0.24,0.39-0.66,0.63-1.11,0.64
				c-0.4,0.01-0.79-0.13-1.09-0.39c-0.27-0.29-0.41-0.69-0.39-1.09c-0.02-0.47,0.17-0.92,0.53-1.22c0.42-0.32,0.93-0.48,1.45-0.47
				h0.61V3.67c0.03-0.23-0.04-0.47-0.2-0.64c-0.17-0.13-0.39-0.2-0.61-0.19c-0.22,0-0.44,0.08-0.61,0.22
				c-0.16,0.14-0.24,0.35-0.22,0.56H34.4c0.01-0.27,0.09-0.52,0.22-0.75c0.15-0.23,0.37-0.42,0.61-0.56
				c0.27-0.14,0.56-0.2,0.86-0.19c0.43-0.03,0.85,0.11,1.17,0.39c0.29,0.29,0.44,0.7,0.42,1.11v2.56c-0.01,0.35,0.05,0.7,0.17,1.03
				v0.08C37.85,7.29,36.98,7.29,36.98,7.29z M35.87,6.65c0.21,0,0.41-0.06,0.58-0.17c0.17-0.09,0.31-0.24,0.39-0.42v-1.2h-0.47
				c-0.33-0.02-0.66,0.08-0.92,0.28c-0.37,0.35-0.44,0.91-0.17,1.34C35.46,6.59,35.66,6.65,35.87,6.65z"/>
			<path id="Trazado_682" class="st1" d="M40.99,4.53c-0.04-0.63,0.11-1.25,0.45-1.78c0.29-0.4,0.76-0.63,1.25-0.61
				c0.45-0.01,0.88,0.21,1.14,0.58V0.1h0.83v7.18h-0.77l-0.06-0.56c-0.25,0.41-0.69,0.65-1.17,0.64c-0.49,0.03-0.95-0.21-1.23-0.61
				C41.11,6.24,40.95,5.64,41,5.03L40.99,4.53z M41.8,5c-0.03,0.43,0.06,0.86,0.25,1.25c0.18,0.28,0.51,0.43,0.83,0.39
				c0.41,0.01,0.77-0.23,0.92-0.61V3.47c-0.16-0.37-0.52-0.61-0.92-0.61c-0.33-0.03-0.64,0.12-0.83,0.39
				c-0.19,0.38-0.28,0.8-0.25,1.22V5z"/>
			<path id="Trazado_683" class="st1" d="M47.73,7.4c-0.54,0.03-1.07-0.17-1.45-0.56c-0.36-0.47-0.55-1.05-0.53-1.64V4.59
				c-0.03-0.63,0.14-1.26,0.5-1.78c0.67-0.77,1.84-0.86,2.62-0.19c0.04,0.03,0.07,0.07,0.11,0.1c0.34,0.52,0.49,1.14,0.45,1.75v0.56
				h-2.84v0.11c-0.03,0.42,0.08,0.84,0.31,1.2c0.22,0.26,0.55,0.39,0.89,0.36c0.46,0.01,0.9-0.21,1.17-0.58l0.42,0.53
				C48.98,7.16,48.37,7.44,47.73,7.4z M47.64,2.86c-0.3-0.02-0.58,0.12-0.75,0.36c-0.19,0.33-0.28,0.71-0.28,1.09h2V4.2
				c0-0.36-0.08-0.71-0.25-1.03C48.18,2.96,47.92,2.85,47.64,2.86L47.64,2.86z"/>
			<path id="Trazado_684" class="st1" d="M54.35,6.67c0.25,0.01,0.49-0.08,0.67-0.25c0.17-0.2,0.27-0.46,0.28-0.72h0.78
				c0,0.46-0.2,0.89-0.53,1.2c-0.32,0.31-0.75,0.48-1.2,0.47c-0.55,0.04-1.08-0.18-1.45-0.58c-0.37-0.51-0.55-1.13-0.5-1.75V4.48
				c-0.04-0.62,0.14-1.24,0.5-1.75c0.36-0.4,0.88-0.62,1.42-0.58c0.46-0.02,0.91,0.16,1.23,0.5c0.32,0.37,0.49,0.85,0.47,1.34H55.3
				c0-0.3-0.09-0.6-0.28-0.83c-0.17-0.19-0.41-0.29-0.67-0.28c-0.31-0.03-0.62,0.11-0.81,0.36c-0.21,0.36-0.3,0.78-0.28,1.2v0.64
				c-0.03,0.42,0.06,0.86,0.29,1.23C53.74,6.57,54.04,6.7,54.35,6.67z"/>
			<path id="Trazado_685" class="st1" d="M56.86,4.53c-0.03-0.63,0.15-1.25,0.53-1.75c0.34-0.43,0.87-0.67,1.42-0.64
				c0.55-0.01,1.07,0.22,1.42,0.64c0.38,0.48,0.57,1.09,0.56,1.7v0.53c0.03,0.63-0.15,1.25-0.53,1.75
				c-0.35,0.42-0.87,0.65-1.42,0.64c-0.54,0.02-1.06-0.2-1.42-0.61c-0.38-0.48-0.57-1.09-0.56-1.7V4.53z M57.69,5
				C57.67,5.43,57.78,5.86,58,6.23c0.18,0.29,0.5,0.46,0.83,0.44c0.72,0,1.11-0.53,1.14-1.59V4.5c0.02-0.43-0.09-0.86-0.31-1.22
				c-0.18-0.29-0.5-0.46-0.83-0.44C58.5,2.83,58.19,3,58.02,3.28c-0.22,0.37-0.33,0.8-0.31,1.22V5H57.69z"/>
			<path id="Trazado_686" class="st1" d="M62.62,2.22l0.03,0.56c0.28-0.4,0.74-0.64,1.23-0.64c0.89,0,1.36,0.58,1.36,1.78v3.37H64.4
				V3.95c0.03-0.29-0.04-0.59-0.2-0.83c-0.15-0.17-0.36-0.26-0.58-0.25c-0.2,0-0.4,0.07-0.56,0.19c-0.17,0.14-0.31,0.32-0.39,0.53
				v3.68h-0.83V2.22H62.62z"/>
			<path id="Trazado_687" class="st1" d="M66.32,4.53c-0.03-0.63,0.15-1.25,0.53-1.75c0.34-0.43,0.87-0.67,1.42-0.64
				c0.55-0.01,1.07,0.22,1.42,0.64c0.38,0.48,0.57,1.09,0.56,1.7v0.53c0.03,0.63-0.15,1.25-0.53,1.75
				c-0.35,0.42-0.87,0.65-1.42,0.64c-0.54,0.02-1.06-0.2-1.42-0.61c-0.38-0.48-0.57-1.09-0.56-1.7V4.53z M67.13,5
				c-0.02,0.43,0.09,0.86,0.31,1.22c0.18,0.29,0.5,0.46,0.83,0.44c0.72,0,1.11-0.53,1.14-1.59V4.5c0.02-0.43-0.09-0.86-0.31-1.22
				c-0.18-0.29-0.5-0.46-0.83-0.44C67.94,2.83,67.63,3,67.46,3.28c-0.22,0.37-0.33,0.8-0.31,1.22V5H67.13z"/>
			<path id="Trazado_688" class="st1" d="M73.06,6.67c0.25,0.01,0.49-0.08,0.67-0.25C73.9,6.22,74,5.96,74.01,5.7h0.78
				c0,0.46-0.2,0.89-0.53,1.2c-0.32,0.31-0.75,0.48-1.2,0.47c-0.55,0.04-1.08-0.18-1.45-0.58c-0.37-0.51-0.55-1.13-0.5-1.75V4.48
				c-0.04-0.62,0.14-1.24,0.5-1.75c0.36-0.4,0.88-0.62,1.42-0.58c0.46-0.02,0.91,0.16,1.23,0.5c0.32,0.37,0.49,0.85,0.47,1.34h-0.78
				c0-0.3-0.09-0.6-0.28-0.83C73.5,2.95,73.26,2.84,73,2.86c-0.31-0.03-0.62,0.11-0.81,0.36c-0.21,0.36-0.3,0.78-0.28,1.2v0.64
				c-0.04,0.44,0.06,0.88,0.29,1.25C72.41,6.57,72.73,6.7,73.06,6.67z"/>
			<path id="Trazado_689" class="st1" d="M76.68,0.88c0.01,0.13-0.03,0.26-0.11,0.36c-0.21,0.19-0.52,0.19-0.72,0
				c-0.08-0.1-0.12-0.23-0.11-0.36c-0.01-0.13,0.03-0.26,0.11-0.36c0.09-0.11,0.23-0.16,0.36-0.14c0.13-0.01,0.27,0.04,0.36,0.14
				C76.65,0.62,76.68,0.75,76.68,0.88z M76.62,7.28h-0.83V2.21h0.83V7.28z"/>
			<path id="Trazado_690" class="st1" d="M78.71,2.22l0.03,0.47c0.3-0.36,0.75-0.57,1.23-0.56c0.51-0.02,0.98,0.26,1.2,0.72
				c0.27-0.47,0.79-0.75,1.34-0.72c0.95,0,1.42,0.58,1.42,1.75v3.43H83.1V3.97c0.02-0.29-0.05-0.58-0.2-0.83
				c-0.17-0.19-0.41-0.29-0.67-0.28c-0.24-0.01-0.46,0.09-0.61,0.28c-0.17,0.21-0.27,0.48-0.28,0.75v3.4H80.5V3.92
				c0-0.7-0.31-1.06-0.86-1.06c-0.41-0.01-0.77,0.25-0.89,0.64v3.79H77.9V2.22H78.71z"/>
			<path id="Trazado_691" class="st1" d="M86.09,0.88c0.01,0.13-0.03,0.26-0.11,0.36c-0.21,0.19-0.52,0.19-0.72,0
				c-0.08-0.1-0.12-0.23-0.11-0.36c-0.01-0.13,0.03-0.26,0.11-0.36c0.09-0.11,0.23-0.16,0.36-0.14c0.13-0.01,0.27,0.04,0.36,0.14
				C86.05,0.62,86.09,0.75,86.09,0.88z M86.03,7.28H85.2V2.21h0.84L86.03,7.28L86.03,7.28z"/>
			<path id="Trazado_692" class="st1" d="M89.15,7.4c-0.54,0.03-1.07-0.17-1.45-0.56c-0.36-0.47-0.55-1.05-0.53-1.64V4.59
				c-0.03-0.63,0.14-1.26,0.5-1.78c0.67-0.77,1.84-0.86,2.62-0.19c0.04,0.03,0.07,0.07,0.11,0.1c0.34,0.52,0.49,1.14,0.45,1.75v0.56
				h-2.84v0.11c-0.03,0.42,0.08,0.84,0.31,1.2c0.22,0.26,0.55,0.39,0.89,0.36c0.46,0.01,0.9-0.21,1.17-0.58l0.42,0.53
				C90.4,7.16,89.79,7.44,89.15,7.4z M89.07,2.86c-0.3-0.02-0.58,0.12-0.75,0.36c-0.19,0.33-0.29,0.71-0.28,1.09h2V4.2
				c0-0.36-0.08-0.71-0.25-1.03C89.61,2.96,89.34,2.85,89.07,2.86L89.07,2.86z"/>
			<path id="Trazado_693" class="st1" d="M92.6,2.22l0.03,0.56c0.28-0.4,0.74-0.64,1.22-0.64c0.89,0,1.36,0.58,1.36,1.78v3.37h-0.84
				V3.95c0.03-0.29-0.04-0.59-0.2-0.83c-0.15-0.17-0.36-0.26-0.58-0.25c-0.2,0-0.4,0.07-0.56,0.19c-0.17,0.14-0.31,0.32-0.39,0.53
				v3.68h-0.83V2.22H92.6z"/>
			<path id="Trazado_694" class="st1" d="M97.56,0.99v1.22h0.75v0.67h-0.75v3.15c-0.02,0.16,0.02,0.31,0.11,0.44
				c0.07,0.12,0.2,0.18,0.33,0.17c0.11-0.01,0.23-0.02,0.33-0.06v0.7c-0.19,0.06-0.39,0.08-0.59,0.08C97.45,7.4,97.17,7.26,97,7.01
				c-0.19-0.3-0.27-0.65-0.25-1V2.87h-0.78V2.23h0.78V0.99H97.56z"/>
			<path id="Trazado_695" class="st1" d="M99.03,4.53C99,3.9,99.19,3.28,99.56,2.78c0.34-0.43,0.87-0.67,1.42-0.64
				c0.55-0.01,1.07,0.22,1.42,0.64c0.38,0.48,0.57,1.09,0.56,1.7v0.53c0.03,0.63-0.15,1.25-0.53,1.75
				c-0.35,0.42-0.87,0.65-1.42,0.64c-0.54,0.02-1.06-0.2-1.42-0.61c-0.38-0.48-0.57-1.09-0.56-1.7V4.53z M99.87,5
				c-0.02,0.43,0.09,0.86,0.31,1.22c0.18,0.29,0.5,0.46,0.84,0.44c0.72,0,1.11-0.53,1.14-1.59V4.5c0.02-0.43-0.09-0.86-0.31-1.22
				c-0.18-0.29-0.5-0.46-0.84-0.44c-0.33-0.01-0.64,0.16-0.81,0.44c-0.22,0.37-0.33,0.8-0.31,1.22V5H99.87z"/>
			<path id="Trazado_696" class="st1" d="M108.83,7.29c-0.06-0.18-0.1-0.37-0.11-0.56c-0.24,0.39-0.66,0.63-1.11,0.64
				c-0.4,0.01-0.79-0.13-1.09-0.39c-0.27-0.29-0.41-0.69-0.39-1.09c-0.02-0.47,0.17-0.92,0.53-1.22c0.42-0.32,0.93-0.48,1.45-0.47
				h0.61V3.67c0.03-0.23-0.04-0.47-0.2-0.64c-0.17-0.13-0.39-0.2-0.61-0.19c-0.22,0-0.44,0.08-0.61,0.22
				c-0.16,0.14-0.24,0.35-0.22,0.56h-0.84c0.01-0.27,0.09-0.52,0.22-0.75c0.16-0.23,0.37-0.42,0.61-0.56
				c0.27-0.14,0.56-0.2,0.86-0.19c0.43-0.03,0.85,0.11,1.17,0.39c0.29,0.29,0.45,0.7,0.42,1.11v2.56c-0.01,0.35,0.05,0.7,0.17,1.03
				v0.08L108.83,7.29z M107.72,6.65c0.21,0,0.41-0.06,0.59-0.17c0.17-0.1,0.31-0.24,0.39-0.42v-1.2h-0.47
				c-0.33-0.02-0.66,0.08-0.92,0.28c-0.37,0.35-0.44,0.91-0.17,1.34C107.31,6.59,107.51,6.65,107.72,6.65L107.72,6.65z"/>
			<path id="Trazado_697" class="st1" d="M110.64,4.53c-0.04-0.62,0.1-1.24,0.42-1.78c0.28-0.41,0.76-0.65,1.25-0.61
				c0.49-0.02,0.94,0.24,1.17,0.67l0.06-0.56h0.75v5.12c0.03,0.53-0.14,1.04-0.47,1.45c-0.36,0.34-0.84,0.52-1.34,0.5
				c-0.29,0-0.57-0.07-0.84-0.19c-0.27-0.09-0.51-0.24-0.7-0.44l0.33-0.58c0.3,0.32,0.71,0.5,1.14,0.5c0.7,0,1.06-0.39,1.06-1.14
				V6.78c-0.25,0.38-0.69,0.6-1.14,0.58c-0.48,0.03-0.94-0.19-1.22-0.58c-0.33-0.5-0.49-1.1-0.45-1.7V4.53H110.64z M111.48,5
				c-0.03,0.43,0.06,0.86,0.25,1.25c0.18,0.28,0.51,0.43,0.84,0.39c0.41,0,0.78-0.25,0.92-0.64V3.47c-0.16-0.37-0.52-0.61-0.92-0.61
				c-0.33-0.03-0.64,0.12-0.84,0.39c-0.19,0.38-0.28,0.8-0.25,1.22V5z"/>
			<path id="Trazado_698" class="st1" d="M117.63,3c-0.12-0.02-0.24-0.03-0.36-0.03c-0.43-0.01-0.8,0.29-0.89,0.7v3.62h-0.83V2.22
				h0.81v0.53c0.16-0.38,0.54-0.62,0.95-0.61c0.11,0,0.23,0.02,0.33,0.06L117.63,3z"/>
			<path id="Trazado_699" class="st1" d="M118.19,4.53c-0.03-0.63,0.15-1.25,0.53-1.75c0.34-0.43,0.87-0.67,1.42-0.64
				c0.55-0.01,1.07,0.22,1.42,0.64c0.38,0.48,0.57,1.09,0.56,1.7v0.53c0.03,0.63-0.15,1.25-0.53,1.75
				c-0.35,0.42-0.87,0.65-1.42,0.64c-0.54,0.02-1.06-0.2-1.42-0.61c-0.38-0.48-0.57-1.09-0.56-1.7V4.53z M119.02,5
				c-0.02,0.43,0.09,0.86,0.31,1.22c0.18,0.29,0.5,0.46,0.84,0.44c0.72,0,1.11-0.53,1.14-1.59V4.5c0.02-0.43-0.09-0.86-0.31-1.22
				c-0.18-0.29-0.5-0.46-0.84-0.44c-0.33-0.01-0.64,0.16-0.81,0.44c-0.22,0.37-0.33,0.8-0.31,1.22V5H119.02z"/>
			<path id="Trazado_700" class="st1" d="M126.84,5.01c0.05,0.63-0.1,1.25-0.45,1.78c-0.29,0.39-0.75,0.6-1.22,0.58
				c-0.46,0.02-0.91-0.2-1.17-0.58v2.42h-0.84V2.22h0.75l0.06,0.56c0.24-0.43,0.71-0.69,1.2-0.67c0.49-0.03,0.96,0.19,1.25,0.58
				c0.31,0.52,0.46,1.12,0.42,1.73V5.01z M126.01,4.53c0.03-0.43-0.06-0.86-0.25-1.25c-0.18-0.28-0.5-0.45-0.84-0.42
				c-0.39,0-0.74,0.23-0.89,0.58v2.64c0.24,0.51,0.86,0.73,1.37,0.49c0.15-0.07,0.28-0.18,0.39-0.32c0.2-0.38,0.3-0.8,0.28-1.22
				v-0.5L126.01,4.53z"/>
			<path id="Trazado_701" class="st1" d="M129.71,7.4c-0.54,0.03-1.07-0.17-1.45-0.56c-0.36-0.47-0.55-1.05-0.53-1.64V4.59
				c-0.03-0.63,0.14-1.26,0.5-1.78c0.67-0.77,1.84-0.86,2.62-0.19c0.04,0.03,0.07,0.07,0.11,0.1c0.34,0.52,0.49,1.14,0.45,1.75v0.56
				h-2.84v0.11c-0.03,0.42,0.07,0.84,0.31,1.2c0.22,0.26,0.55,0.39,0.89,0.36c0.46,0.01,0.9-0.21,1.17-0.58l0.42,0.53
				C130.97,7.16,130.35,7.44,129.71,7.4z M129.63,2.86c-0.3-0.02-0.58,0.12-0.75,0.36c-0.19,0.33-0.28,0.71-0.28,1.09h2V4.2
				c0-0.36-0.08-0.71-0.25-1.03C130.17,2.96,129.9,2.85,129.63,2.86L129.63,2.86z"/>
			<path id="Trazado_702" class="st1" d="M134.16,6.67c0.25,0.01,0.49-0.08,0.67-0.25c0.17-0.2,0.27-0.46,0.28-0.72h0.78
				c0,0.46-0.2,0.89-0.53,1.2c-0.32,0.31-0.75,0.48-1.2,0.47c-0.55,0.04-1.08-0.18-1.45-0.58c-0.37-0.51-0.55-1.13-0.5-1.75V4.48
				c-0.04-0.62,0.14-1.24,0.5-1.75c0.36-0.4,0.88-0.62,1.42-0.58c0.46-0.02,0.91,0.16,1.22,0.5c0.32,0.37,0.49,0.85,0.47,1.34h-0.78
				c0-0.3-0.1-0.6-0.28-0.83c-0.17-0.19-0.41-0.29-0.67-0.28c-0.31-0.03-0.62,0.11-0.81,0.36c-0.21,0.36-0.3,0.78-0.28,1.2v0.64
				c-0.05,0.44,0.05,0.88,0.28,1.25C133.51,6.57,133.83,6.7,134.16,6.67z"/>
			<path id="Trazado_703" class="st1" d="M139.4,6.84c-0.29,0.36-0.74,0.56-1.2,0.53c-0.4,0.02-0.79-0.16-1.03-0.47
				c-0.26-0.42-0.39-0.9-0.36-1.39V2.22h0.84v3.23c0,0.78,0.25,1.2,0.72,1.2c0.45,0.04,0.88-0.24,1.03-0.67V2.22h0.84v5.07h-0.78
				L139.4,6.84z"/>
			<path id="Trazado_704" class="st1" d="M144.07,7.29c-0.06-0.18-0.1-0.37-0.11-0.56c-0.24,0.39-0.66,0.63-1.11,0.64
				c-0.4,0.01-0.79-0.13-1.09-0.39c-0.27-0.29-0.41-0.69-0.39-1.09c-0.02-0.47,0.17-0.92,0.53-1.22c0.42-0.32,0.93-0.48,1.45-0.47
				h0.61V3.67c0.03-0.23-0.04-0.47-0.2-0.64c-0.18-0.13-0.39-0.2-0.61-0.19c-0.22,0-0.44,0.08-0.61,0.22
				c-0.16,0.14-0.24,0.35-0.22,0.56h-0.84c0.01-0.27,0.09-0.52,0.22-0.75c0.16-0.23,0.37-0.42,0.61-0.56
				c0.27-0.14,0.56-0.2,0.86-0.19c0.43-0.03,0.85,0.11,1.17,0.39c0.29,0.29,0.44,0.7,0.42,1.11v2.56c-0.01,0.35,0.05,0.7,0.17,1.03
				v0.08C144.93,7.29,144.07,7.29,144.07,7.29z M142.96,6.65c0.21,0,0.41-0.06,0.59-0.17c0.17-0.09,0.31-0.24,0.39-0.42v-1.2h-0.47
				c-0.33-0.02-0.66,0.08-0.92,0.28c-0.37,0.35-0.44,0.91-0.17,1.34C142.55,6.59,142.75,6.65,142.96,6.65z"/>
			<path id="Trazado_705" class="st1" d="M148.14,3c-0.12-0.02-0.24-0.03-0.36-0.03c-0.43-0.01-0.8,0.29-0.89,0.7v3.62h-0.84V2.22
				h0.81v0.53c0.16-0.38,0.54-0.62,0.95-0.61c0.11,0,0.23,0.02,0.33,0.06V3z"/>
			<path id="Trazado_706" class="st1" d="M149.92,0.88c0.01,0.13-0.03,0.26-0.11,0.36c-0.21,0.19-0.52,0.19-0.72,0
				c-0.08-0.1-0.12-0.23-0.11-0.36c-0.01-0.13,0.03-0.26,0.11-0.36c0.09-0.11,0.23-0.16,0.36-0.14c0.13-0.01,0.27,0.04,0.36,0.14
				C149.89,0.62,149.93,0.75,149.92,0.88z M149.86,7.28h-0.84V2.21h0.84V7.28z"/>
			<path id="Trazado_707" class="st1" d="M151.01,4.53c-0.03-0.63,0.15-1.25,0.53-1.75c0.34-0.43,0.87-0.67,1.42-0.64
				c0.55-0.01,1.07,0.22,1.42,0.64c0.38,0.48,0.57,1.09,0.56,1.7v0.53c0.03,0.63-0.15,1.25-0.53,1.75
				c-0.35,0.42-0.87,0.65-1.42,0.64c-0.54,0.02-1.06-0.2-1.42-0.61c-0.38-0.48-0.57-1.09-0.56-1.7V4.53z M151.81,5
				c-0.02,0.43,0.09,0.86,0.31,1.22c0.18,0.29,0.5,0.46,0.84,0.44c0.72,0,1.11-0.53,1.14-1.59V4.5c0.02-0.43-0.09-0.86-0.31-1.22
				c-0.18-0.29-0.5-0.46-0.84-0.44c-0.33-0.01-0.64,0.16-0.81,0.44c-0.22,0.37-0.33,0.8-0.31,1.22V5H151.81z"/>
		</g>
	</g>
</g>
</svg>
